<?xml version="1.0" encoding="utf-8"?>
<!-- Generator: Adobe Illustrator 16.0.0, SVG Export Plug-In . SVG Version: 6.00 Build 0)  -->
<!DOCTYPE svg PUBLIC "-//W3C//DTD SVG 1.1//EN" "http://www.w3.org/Graphics/SVG/1.1/DTD/svg11.dtd">
<svg version="1.1" id="Layer_1" xmlns="http://www.w3.org/2000/svg" xmlns:xlink="http://www.w3.org/1999/xlink" x="0px" y="0px"
	 width="399.037px" height="450.062px" viewBox="0 0 399.037 450.062" enable-background="new 0 0 399.037 450.062"
	 xml:space="preserve">
<circle fill="#17202A" cx="201.011" cy="253.88" r="196.182"/>
<g>
	<defs>
		<circle id="SVGID_1_" cx="202.855" cy="253.88" r="196.182"/>
	</defs>
	<clipPath id="SVGID_2_">
		<use xlink:href="#SVGID_1_"  overflow="visible"/>
	</clipPath>
	<polygon clip-path="url(#SVGID_2_)" fill="#D0EBE6" points="93.401,279.88 107.901,253.88 167.401,288.38 152.401,312.88 	"/>
	<g clip-path="url(#SVGID_2_)">
		<path fill="#A3D9CE" d="M78.151,357.13c0-1.1,0.802-2.408,1.783-2.906l11.684-5.938c0.981-0.498,1.783-1.807,1.783-2.906v-63.5
			c0-1.1,0.786-1.561,1.746-1.023l55.509,31.047c0.96,0.537,1.746,1.877,1.746,2.977v62.5c0,1.1,0.44,2.785,0.978,3.744
			l13.044,23.262c0.538,0.959,0.978,2.645,0.978,3.744v97.75c0,1.1-0.9,2-2,2h-85.25c-1.1,0-2-0.9-2-2V357.13z"/>
	</g>
	<g clip-path="url(#SVGID_2_)">
		<path fill="#80C99F" d="M63.651,226.63c0,1.1,0.47,2.768,1.045,3.705l12.16,19.84c0.575,0.938,1.809,2.181,2.743,2.763
			l11.854,7.385c0.934,0.582,2.497,0.644,3.474,0.139l10.947-5.662c0.977-0.505,2.555-0.467,3.506,0.084l56.04,32.493
			c0.951,0.553,1.26,1.771,0.686,2.709l-5.622,9.184c-0.575,0.938-0.256,2.141,0.707,2.672l47.959,26.473
			c0.963,0.531,2.651,0.967,3.751,0.967h25.25c1.1,0,2.777-0.454,3.727-1.009l24.797-14.482c0.949-0.555,2.627-1.009,3.727-1.009
			h26.5c1.1,0,2.788-0.435,3.751-0.967l25.498-14.066c0.963-0.532,1.751-1.867,1.751-2.967v-48c0-1.1-0.794-2.423-1.765-2.941
			l-11.471-6.117c-0.971-0.518-1.773-1.841-1.784-2.941l-0.461-46.5c-0.011-1.1-0.786-2.471-1.724-3.046l-25.092-15.407
			c-0.938-0.576-1.779-1.943-1.87-3.04l-1.168-14.014c-0.091-1.096-1.064-2.045-2.163-2.108l-126.256-7.271
			c-1.098-0.063-2.643,0.512-3.433,1.277l-5.378,5.216c-0.79,0.766-2.336,1.404-3.436,1.418l-34,0.447
			c-1.1,0.015-2.749,0.525-3.664,1.136l-9.422,6.281c-0.915,0.61-2.259,1.785-2.986,2.61l-26.856,30.498
			c-0.727,0.826-1.322,2.401-1.322,3.501V226.63z"/>
	</g>
	<g clip-path="url(#SVGID_2_)">
		<path fill="#196F3D" d="M93.401,261.38v16.5c0,1.101,0.438,1.214,0.974,0.253l12.552-22.506c0.536-0.96,0.175-1.333-0.802-0.828
			L93.401,261.38"/>
	</g>
	<polyline clip-path="url(#SVGID_2_)" fill="#80C99F" points="152.401,296.88 167.151,288.38 159.776,301.88 152.401,296.88 	"/>
	<polyline clip-path="url(#SVGID_2_)" fill="#80C99F" points="167.401,288.38 152.401,296.88 159.901,300.222 168.651,288.38 	"/>
	<polygon clip-path="url(#SVGID_2_)" fill="#A2D8CE" points="283.651,249.38 283.651,202.88 222.151,173.88 167.401,167.38 
		122.526,194.88 122.776,209.38 137.151,219.38 137.151,236.38 107.901,253.88 167.401,288.38 195.901,271.38 253.151,291.88 
		268.651,285.88 298.151,285.88 305.151,279.88 305.151,258.88 	"/>
	<g clip-path="url(#SVGID_2_)">
		<path fill="#24AE5F" d="M179.491,379.514c0.913,0.614,1.66,2.017,1.66,3.116v142.25c0,1.1-0.528,1.271-1.172,0.38l-11.405-15.76
			c-0.645-0.891-1.172-2.521-1.172-3.62v-132.5c0-1.1,0.747-1.498,1.66-0.884L179.491,379.514z"/>
	</g>
	<g clip-path="url(#SVGID_2_)">
		<path fill="#80C99F" d="M194.144,354.175c0.966,0.525,1.306,1.734,0.755,2.687l-12.747,22.037
			c-0.551,0.952-1.748,1.229-2.661,0.615l-10.431-7.018c-0.913-0.614-1.2-1.89-0.639-2.836L180.63,349.1
			c0.562-0.946,1.812-1.29,2.778-0.765L194.144,354.175z"/>
	</g>
	<g clip-path="url(#SVGID_2_)">
		<path fill="#1D8449" d="M194.155,458.107c0.96-0.537,1.746-1.877,1.746-2.977v-98c0-1.1-0.451-1.221-1.001-0.269l-12.747,22.037
			c-0.551,0.952-1.001,2.632-1.001,3.731v80.75c0,1.1,0.786,1.561,1.746,1.023L194.155,458.107z"/>
	</g>
	<g clip-path="url(#SVGID_2_)">
		<path fill="#219954" d="M154.145,297.86c-0.959-0.538-1.744-0.079-1.744,1.021v78.5c0,1.1,0.453,2.777,1.007,3.729l12.986,22.293
			c0.554,0.951,1.007,0.828,1.007-0.271v-29.75c0-1.1,0.459-2.773,1.021-3.72L180.63,349.1c0.562-0.946,1.812-1.29,2.778-0.765
			l10.736,5.84c0.966,0.525,1.757,1.855,1.757,2.955v46c0,1.1,0,2.9,0,4v48c0,1.1,0.9,2,2,2h11.25c1.1,0,2-0.9,2-2V331.88
			c0-1.1-0.785-2.441-1.744-2.979L154.145,297.86z"/>
	</g>
	<polygon clip-path="url(#SVGID_2_)" fill="#219954" points="152.401,379.38 152.401,443.991 166.918,446.774 167.401,405.13 
		159.901,366.938 	"/>
	<g clip-path="url(#SVGID_2_)">
		<path fill="#196F3D" d="M240.401,331.38c0-1.1-0.9-2-2-2h-25.25c-1.1,0-2,0.9-2,2v122.75c0,1.1,0.9,2,2,2h25.25c1.1,0,2-0.9,2-2
			V331.38z"/>
	</g>
	<g clip-path="url(#SVGID_2_)">
		<path fill="#155A32" d="M240.401,331.38c0-1.1,0.775-2.457,1.723-3.016l24.555-14.469c0.947-0.559,1.723-0.115,1.723,0.984v139.25
			c0,1.1-0.9,2-2,2h-24c-1.1,0-2-0.9-2-2V331.38z"/>
	</g>
	<g clip-path="url(#SVGID_2_)">
		<path fill="#196F3D" d="M296.901,312.88c1.1,0,2,0.9,2,2v139.25c0,1.1-0.9,2-2,2h-26.5c-1.1,0-2-0.9-2-2V314.88c0-1.1,0.9-2,2-2
			H296.901z"/>
	</g>
	<g clip-path="url(#SVGID_2_)">
		<path fill="#155A32" d="M326.15,297.847c0.963-0.532,1.751-0.066,1.751,1.033v156.25c0,1.1-0.9,2-2,2h-25c-1.1,0-2-0.9-2-2V314.88
			c0-1.1,0.788-2.435,1.751-2.967L326.15,297.847z"/>
	</g>
	<g clip-path="url(#SVGID_2_)">
		<path fill="#24AE5F" d="M93.401,263.38c0-1.1-0.764-2.476-1.698-3.058l-11.854-7.385c-0.934-0.582-2.168-1.825-2.743-2.763
			l-12.16-19.84c-0.575-0.938-1.045-0.805-1.045,0.295v80.25c0,1.1,0.774,2.459,1.72,3.021l11.31,6.709
			c0.946,0.562,1.72,1.921,1.72,3.021v29.5c0,1.1,0.797,1.581,1.771,1.069l11.209-5.889c0.974-0.512,1.771-1.831,1.771-2.931V263.38
			z"/>
	</g>
	<polygon clip-path="url(#SVGID_2_)" fill="#24AE5F" points="93.401,416.712 93.401,347.38 78.651,355.13 78.651,405.736 	"/>
	<g clip-path="url(#SVGID_2_)">
		<path fill="#24AE5F" d="M50.876,339.892c-0.949-0.557-1.726-0.111-1.726,0.988v131c0,1.1,0,2.9,0,4v17.75
			c0,1.1,0.878,2.197,1.952,2.438l10.597,2.375c1.073,0.24,1.952-0.463,1.952-1.563v-147.5c0-1.1-0.776-2.455-1.726-3.012
			L50.876,339.892z"/>
	</g>
	<g clip-path="url(#SVGID_2_)">
		<path fill="#80C99F" d="M62.914,314.621c0.543-0.957,1.761-1.281,2.707-0.72l11.31,6.709c0.946,0.562,1.267,1.798,0.713,2.749
			l-12.986,22.293c-0.554,0.951-1.783,1.273-2.732,0.717l-11.049-6.477c-0.949-0.557-1.282-1.795-0.739-2.751L62.914,314.621z"/>
	</g>
	<g clip-path="url(#SVGID_2_)">
		<path fill="#1D8449" d="M63.651,496.88c0,1.1,0.794,1.576,1.764,1.058l10.973-5.865c0.97-0.519,1.766-1.843,1.77-2.942
			l0.488-165.5c0.003-1.1-0.447-1.223-1.001-0.271l-12.986,22.293c-0.554,0.951-1.007,2.629-1.007,3.729V496.88z"/>
	</g>
</g>
<polygon fill="#196F3D" points="79.122,224.186 89.789,169.144 103.789,223.936 "/>
<polygon fill="#219954" points="67.122,211.85 79.122,224.186 89.789,169.144 "/>
<polygon fill="#165A32" points="103.789,223.936 112.455,211.85 89.789,169.144 "/>
<polygon fill="#196F3D" points="93.122,241.52 103.789,186.478 117.789,241.27 "/>
<polygon fill="#219954" points="81.122,229.184 93.122,241.52 103.789,186.478 "/>
<polygon fill="#165A32" points="117.789,241.27 126.455,229.184 103.789,186.478 "/>
<polygon fill="#196F3D" points="193.457,308.921 204.124,253.88 218.124,308.671 "/>
<polygon fill="#219954" points="181.457,296.585 193.457,308.921 204.124,253.88 "/>
<polygon fill="#165A32" points="218.124,308.671 226.79,296.585 204.124,253.88 "/>
<polygon fill="#196F3D" points="275.9,306.065 286.567,251.023 300.567,305.815 "/>
<polygon fill="#219954" points="263.9,293.729 275.9,306.065 286.567,251.023 "/>
<polygon fill="#165A32" points="300.567,305.815 309.233,293.729 286.567,251.023 "/>
<polygon fill="#196F3D" points="267.129,182.184 275.235,140.362 285.873,181.994 "/>
<polygon fill="#219954" points="258.011,172.811 267.129,182.184 275.235,140.362 "/>
<polygon fill="#165A32" points="285.873,181.994 292.457,172.811 275.235,140.362 "/>
<polygon fill="#196F3D" points="118.63,169.144 126.455,128.768 136.725,168.96 "/>
<polygon fill="#219954" points="109.828,160.095 118.63,169.144 126.455,128.768 "/>
<polygon fill="#165A32" points="136.725,168.96 143.082,160.095 126.455,128.768 "/>
<polygon fill="#F5DDCC" points="161.273,88.773 213.967,117.768 263.9,96.398 267.607,84.768 229.607,64.023 205.942,59.635 "/>
<polyline fill="#1F1B15" points="173.192,228.523 273.608,170.432 263.9,113.432 238.273,109.765 192.942,114.765 170.792,112.765 
	166.918,151.765 173.192,228.523 "/>
<polyline fill="#1F1B15" points="254.888,228.523 154.472,170.432 164.18,113.432 189.807,109.765 235.138,114.765 257.288,112.765 
	261.162,151.765 254.888,228.523 "/>
<polyline fill="#F5CBA7" points="170.792,79.998 213.967,58.51 213.967,55.754 213.967,51.873 199.667,55.36 170.792,70.436 
	170.792,79.998 "/>
<polygon fill="#F0B27A" points="213.967,58.51 213.967,66.61 172.442,86.186 170.792,79.998 "/>
<polygon fill="#F5CBA7" points="170.792,62.673 177.942,66.61 185.092,62.673 177.942,58.51 "/>
<polygon fill="#F5CBA7" points="185.092,55.811 192.379,59.635 199.667,55.811 192.379,51.873 "/>
<polygon fill="#F5CBA7" points="199.667,49.398 206.817,53.223 213.967,48.835 213.967,41.86 "/>
<polygon fill="#935223" points="177.942,66.61 177.942,72.573 185.092,69.085 185.092,62.673 "/>
<polygon fill="#935223" points="192.379,59.635 192.517,65.71 198.979,62.561 199.667,55.811 "/>
<polygon fill="#935223" points="206.817,53.223 206.817,59.073 213.967,55.023 213.967,48.835 "/>
<polygon fill="#F0B27A" points="170.792,62.673 170.792,69.085 177.942,72.573 177.942,66.61 "/>
<polygon fill="#F0B27A" points="185.092,55.811 185.092,62.673 192.517,65.71 192.379,59.635 "/>
<polygon fill="#F0B27A" points="199.667,49.398 199.667,55.248 206.817,59.073 206.817,53.223 "/>
<polyline fill="#F5CBA7" points="256.592,79.998 213.417,58.51 213.417,55.754 213.417,51.873 227.717,55.36 256.592,70.436 
	256.592,79.998 "/>
<polygon fill="#F0B27A" points="213.417,58.51 213.417,66.61 254.942,86.186 256.592,79.998 "/>
<polygon fill="#F5CBA7" points="256.592,62.673 249.442,66.61 242.292,62.673 249.442,58.51 "/>
<polygon fill="#F5CBA7" points="242.292,55.811 235.004,59.635 227.717,55.811 235.004,51.873 "/>
<polygon fill="#F5CBA7" points="227.717,49.398 220.567,53.223 213.417,48.835 213.417,41.86 "/>
<polygon fill="#EFB279" points="249.442,66.61 249.442,72.573 242.292,69.085 242.292,62.673 "/>
<polygon fill="#EFB279" points="235.004,59.635 234.867,65.71 228.405,62.561 227.717,55.811 "/>
<polygon fill="#EFB279" points="220.567,53.223 220.567,59.073 213.417,55.023 213.417,48.835 "/>
<polygon fill="#77441C" points="256.592,62.673 256.592,69.085 249.442,72.573 249.442,66.61 "/>
<g>
	<polygon fill="#F5DDCC" points="189.521,23.269 213.819,37.65 236.843,27.051 238.552,21.282 221.031,10.993 210.119,8.816 	"/>
	<polyline fill="#F5CBA7" points="193.911,18.917 213.819,8.258 213.819,6.892 213.819,4.966 207.225,6.696 193.911,14.173 
		193.911,18.917 	"/>
	<polygon fill="#F0B27A" points="213.819,8.258 213.819,12.276 194.671,21.985 193.911,18.917 	"/>
	<polygon fill="#F5CBA7" points="193.911,10.323 197.208,12.276 200.503,10.323 197.208,8.258 	"/>
	<polygon fill="#F5CBA7" points="200.503,6.919 203.865,8.816 207.225,6.919 203.865,4.966 	"/>
	<polygon fill="#F5CBA7" points="207.225,3.739 210.522,5.636 213.819,3.459 213.819,0 	"/>
	<polygon fill="#935223" points="197.208,12.276 197.208,15.233 200.503,13.504 200.503,10.323 	"/>
	<polygon fill="#935223" points="203.865,8.816 203.928,11.83 206.908,10.268 207.225,6.919 	"/>
	<polygon fill="#935223" points="210.522,5.636 210.522,8.538 213.819,6.529 213.819,3.459 	"/>
	<polygon fill="#F0B27A" points="193.911,10.323 193.911,13.504 197.208,15.233 197.208,12.276 	"/>
	<polygon fill="#F0B27A" points="200.503,6.919 200.503,10.323 203.928,11.83 203.865,8.816 	"/>
	<polygon fill="#F0B27A" points="207.225,3.739 207.225,6.641 210.522,8.538 210.522,5.636 	"/>
	<polyline fill="#F5CBA7" points="233.474,18.917 213.565,8.258 213.565,6.892 213.565,4.966 220.159,6.696 233.474,14.173 
		233.474,18.917 	"/>
	<polygon fill="#F0B27A" points="213.565,8.258 213.565,12.276 232.712,21.985 233.474,18.917 	"/>
	<polygon fill="#F5CBA7" points="233.474,10.323 230.176,12.276 226.879,10.323 230.176,8.258 	"/>
	<polygon fill="#F5CBA7" points="226.879,6.919 223.519,8.816 220.159,6.919 223.519,4.966 	"/>
	<polygon fill="#F5CBA7" points="220.159,3.739 216.862,5.636 213.565,3.459 213.565,0 	"/>
	<polygon fill="#EFB279" points="230.176,12.276 230.176,15.233 226.879,13.504 226.879,10.323 	"/>
	<polygon fill="#EFB279" points="223.519,8.816 223.456,11.83 220.476,10.268 220.159,6.919 	"/>
	<polygon fill="#EFB279" points="216.862,5.636 216.862,8.538 213.565,6.529 213.565,3.459 	"/>
	<polygon fill="#77441C" points="233.474,10.323 233.474,13.504 230.176,15.233 230.176,12.276 	"/>
	<polygon fill="#77441C" points="226.879,6.919 226.879,10.323 223.456,11.83 223.519,8.816 	"/>
	<polygon fill="#77441C" points="220.159,3.739 220.159,6.641 216.862,8.538 216.862,5.636 	"/>
	<polygon fill="#F5CBA7" points="195.017,16.697 192.125,18.557 186.064,14.713 192.125,10.993 195.017,13.225 192.125,14.713 	"/>
	<polygon fill="#935223" points="192.125,22.277 195.017,20.293 195.017,16.697 192.125,18.557 	"/>
	<polygon fill="#F4CBA7" points="195.017,23.889 192.125,22.277 195.017,20.293 	"/>
	<polygon fill="#F0B27A" points="207.121,27.981 207.121,31.701 204.124,30.213 204.124,26.369 201.011,24.137 201.011,27.981 
		198.014,26.245 198.014,22.277 195.017,20.293 195.017,23.889 192.125,22.277 192.125,18.557 186.064,14.713 186.064,85.684 
		195.017,92.586 195.017,46.333 199.513,38.025 204.124,51.045 204.124,97.422 213.692,103.746 213.692,47.325 213.692,45.589 
		213.692,31.205 	"/>
	<polygon fill="#935223" points="198.014,22.277 198.014,26.245 201.011,24.137 201.011,20.293 	"/>
	<polygon fill="#935223" points="204.124,30.213 207.121,27.981 207.121,23.889 204.124,26.369 	"/>
	<polygon fill="#F4CBA7" points="198.014,26.245 201.011,24.137 201.011,27.981 	"/>
	<polygon fill="#F5CBA7" points="195.017,20.293 198.014,18.557 201.011,20.293 198.014,22.277 	"/>
	<polygon fill="#F5CBA7" points="207.121,23.889 204.124,26.369 201.011,24.137 204.066,22.091 	"/>
	<polygon fill="#F4CBA7" points="204.124,30.213 207.121,31.701 207.121,27.981 	"/>
	<polygon fill="#935223" points="195.017,13.225 195.017,16.697 192.125,14.713 	"/>
	<polygon fill="#F5CBA7" points="232.367,16.697 235.259,18.557 241.32,14.713 235.259,10.993 232.367,13.225 235.259,14.713 	"/>
	<polygon fill="#EFB279" points="235.259,22.277 232.367,20.293 232.367,16.697 235.259,18.557 	"/>
	<polygon fill="#F4CBA7" points="232.367,23.889 235.259,22.277 232.367,20.293 	"/>
	<polygon fill="#78431B" points="220.263,27.981 220.263,31.701 223.26,30.213 223.26,26.369 226.373,24.137 226.373,27.981 
		229.37,26.245 229.37,22.277 232.367,20.293 232.367,23.889 235.259,22.277 235.259,18.557 241.32,14.713 241.32,85.684 
		232.367,46.333 227.871,38.025 223.26,51.045 213.692,103.746 213.692,47.325 213.692,45.589 213.692,31.205 	"/>
	<polygon fill="#EFB279" points="229.37,22.277 229.37,26.245 226.373,24.137 226.373,20.293 	"/>
	<polygon fill="#EFB279" points="223.26,30.213 220.263,27.981 220.263,23.889 223.26,26.369 	"/>
	<polygon fill="#F4CBA7" points="229.37,26.245 226.373,24.137 226.373,27.981 	"/>
	<polygon fill="#F5CBA7" points="232.367,20.293 229.37,18.557 226.373,20.293 229.37,22.277 	"/>
	<polygon fill="#F5CBA7" points="220.263,23.889 223.26,26.369 226.373,24.137 223.318,22.091 	"/>
	<polygon fill="#F4CBA7" points="223.26,30.213 220.263,31.701 220.263,27.981 	"/>
	<polygon fill="#EFB279" points="232.367,13.225 232.367,16.697 235.259,14.713 	"/>
	<polygon fill="#F5CBA7" points="207.121,27.981 209.502,26.245 213.819,27.981 218.51,26.059 220.263,27.981 213.692,31.205 	"/>
	<path fill="#F0B27A" d="M213.692,103.746l-27.628-18.063l6.061-48.033c0,0,10.604,1.443,11.999,0S213.692,103.746,213.692,103.746z
		"/>
	<polygon fill="#78431B" points="213.692,103.746 241.32,85.684 232.367,37.65 223.26,37.628 	"/>
</g>
<polygon fill="#77441C" points="242.292,55.811 242.292,62.673 234.867,65.71 235.004,59.635 "/>
<polygon fill="#77441C" points="227.717,49.398 227.717,55.248 220.567,59.073 220.567,53.223 "/>
<polygon fill="#F5CBA7" points="173.192,75.523 166.918,79.273 153.776,71.523 166.918,64.023 173.192,68.523 166.918,71.523 "/>
<polygon fill="#935223" points="166.918,86.773 173.192,82.773 173.192,75.523 166.918,79.273 "/>
<polygon fill="#F4CBA7" points="173.192,90.023 166.918,86.773 173.192,82.773 "/>
<polygon fill="#F0B27A" points="199.442,98.273 199.442,105.773 192.942,102.773 192.942,95.023 186.192,90.523 186.192,98.273 
	179.692,94.773 179.692,86.773 173.192,82.773 173.192,90.023 166.918,86.773 166.918,79.273 153.776,71.523 153.776,214.607 
	173.192,228.523 173.192,135.273 182.942,118.523 192.942,144.773 192.942,238.273 213.692,251.023 213.692,137.273 
	213.692,133.773 213.692,104.773 "/>
<polygon fill="#935223" points="179.692,86.773 179.692,94.773 186.192,90.523 186.192,82.773 "/>
<polygon fill="#935223" points="192.942,102.773 199.442,98.273 199.442,90.023 192.942,95.023 "/>
<polygon fill="#F4CBA7" points="179.692,94.773 186.192,90.523 186.192,98.273 "/>
<polygon fill="#F5CBA7" points="173.192,82.773 179.692,79.273 186.192,82.773 179.692,86.773 "/>
<polygon fill="#F5CBA7" points="199.442,90.023 192.942,95.023 186.192,90.523 192.817,86.398 "/>
<polygon fill="#F4CBA7" points="192.942,102.773 199.442,105.773 199.442,98.273 "/>
<polygon fill="#935223" points="173.192,68.523 173.192,75.523 166.918,71.523 "/>
<polygon fill="#F5CBA7" points="254.192,75.523 260.465,79.273 273.608,71.523 260.465,64.023 254.192,68.523 260.465,71.523 "/>
<polygon fill="#EFB279" points="260.465,86.773 254.192,82.773 254.192,75.523 260.465,79.273 "/>
<polygon fill="#F4CBA7" points="254.192,90.023 260.465,86.773 254.192,82.773 "/>
<polygon fill="#78431B" points="227.942,98.273 227.942,105.773 234.442,102.773 234.442,95.023 241.192,90.523 241.192,98.273 
	247.692,94.773 247.692,86.773 254.192,82.773 254.192,90.023 260.465,86.773 260.465,79.273 273.608,71.523 273.608,214.607 
	254.192,228.523 254.192,135.273 244.442,118.523 234.442,144.773 234.442,238.273 213.692,251.023 213.692,137.273 
	213.692,133.773 213.692,104.773 "/>
<polygon fill="#EFB279" points="247.692,86.773 247.692,94.773 241.192,90.523 241.192,82.773 "/>
<polygon fill="#EFB279" points="234.442,102.773 227.942,98.273 227.942,90.023 234.442,95.023 "/>
<polygon fill="#F4CBA7" points="247.692,94.773 241.192,90.523 241.192,98.273 "/>
<polygon fill="#F5CBA7" points="254.192,82.773 247.692,79.273 241.192,82.773 247.692,86.773 "/>
<polygon fill="#F5CBA7" points="227.942,90.023 234.442,95.023 241.192,90.523 234.567,86.398 "/>
<polygon fill="#F4CBA7" points="234.442,102.773 227.942,105.773 227.942,98.273 "/>
<polygon fill="#EFB279" points="254.192,68.523 254.192,75.523 260.465,71.523 "/>
<polygon fill="#F5CBA7" points="199.442,98.273 204.606,94.773 213.967,98.273 224.142,94.398 227.942,98.273 213.692,104.773 "/>
</svg>
